{"title":"Cop.Out.(2010).REPACK.CAM.XviD-iMAGiNE","uid":5421491,"size":1495668721,"categoryP":"video","categoryS":"movies","magnet":"?xt=urn:btih:eea0911fbe1fe847d5733bd3571207abe68a818e&amp;dn=Cop.Out.%282010%29.REPACK.CAM.XviD-iMAGiNE&amp;tr=udp%3A%2F%2Ftracker.openbittorrent.com%3A80&amp;tr=udp%3A%2F%2Fopen.demonii.com%3A1337&amp;tr=udp%3A%2F%2Ftracker.coppersurfer.tk%3A6969&amp;tr=udp%3A%2F%2Fexodus.desync.com%3A6969","seeders":0,"leechers":1,"uploader":"IwannaFan2","files":3,"time":1268099677,"description":"Filename:\nCop.Out.(2010).REPACK.CAM.XviD-iMAGiNE\n &lt;a href=&quot;\nhttp://www.imdb.com/title/tt1385867/&quot; rel=&quot;nofollow&quot; target=&quot;_NEW&quot;&gt;\nhttp://www.imdb.com/title/tt1385867/&lt;/a&gt;\n\nDETAILS:\n\nVideo\nID                               : 0\nFormat                           : MPEG-4 Visual\nFormat profile                   : Advanced Simple@L5\nFormat settings, BVOP            : Yes\nFormat settings, QPel            : No\nFormat settings, GMC             : No warppoints\nFormat settings, Matrix          : Default (MPEG)\nCodec ID                         : DX50\nCodec ID/Hint                    : DivX 5\nDuration                         : 1h 42mn\nBit rate                         : 1 768 Kbps\nWidth                            : 716 pixels\nHeight                           : 288 pixels\nDisplay aspect ratio             : 2.486\nFrame rate                       : 23.976 fps\nResolution                       : 24 bits\nColorimetry                      : 4:2:0\nScan type                        : Progressive\nBits/(Pixel*Frame)               : 0.358\nStream size                      : 1.27 GiB (93%)\nWriting library                  : XviD 1.2.1 (UTC 2008-12-04)\n\nAudio\nID                               : 1\nFormat                           : MPEG Audio\nFormat version                   : Version 1\nFormat profile                   : Layer 3\nCodec ID                         : 55\nCodec ID/Hint                    : MP3\nDuration                         : 1h 42mn\nBit rate mode                    : Constant\nBit rate                         : 128 Kbps\nChannel(s)                       : 2 channels\nSampling rate                    : 44.1 KHz\nResolution                       : 16 bits\nStream size                      : 94.1 MiB (7%)\nAlignment                        : Aligned on interleaves\nInterleave, duration             : 42 ms (1.00 video frame)\n\n\nNOTES:\n\nIMAGiNE bringing you another release.....\nHeres another homemade for ya all......audio is our but only cam.\nAudio .....well we tried to get direct but had problems with the sound so we've opted to release this now instead of\nsitting on it,but all being well we should get direct for it soon but unsure on the date so ......but for now this isn't is\npretty decent cam audio and will do for most until we get line.\nVideo .....more from our latest toy,looks the best one yet and we're still messing so hopefully we'll get better the more\nwe do ","torrent":{"xt":"urn:btih:eea0911fbe1fe847d5733bd3571207abe68a818e","amp;dn":"Cop.Out.%282010%29.REPACK.CAM.XviD-iMAGiNE","amp;tr":["udp%3A%2F%2Ftracker.openbittorrent.com%3A80","udp%3A%2F%2Fopen.demonii.com%3A1337","udp%3A%2F%2Ftracker.coppersurfer.tk%3A6969","udp%3A%2F%2Fexodus.desync.com%3A6969"],"infoHash":"eea0911fbe1fe847d5733bd3571207abe68a818e","infoHashBuffer":{"type":"Buffer","data":[238,160,145,31,190,31,232,71,213,115,59,211,87,18,7,171,230,138,129,142]},"announce":[],"urlList":[]}}